<?xml version="1.0" encoding="UTF-8"?>
<svg version="1.1" xmlns="http://www.w3.org/2000/svg" width="368" height="368">
<path d="M0 0 C0.7626416 0.16628906 1.5252832 0.33257812 2.31103516 0.50390625 C32.65790405 7.27132694 62.36088541 21.22512523 84.87109375 42.9765625 C86.94338903 45.03714319 86.94338903 45.03714319 89.28515625 46.6484375 C89.85105469 47.09445313 90.41695313 47.54046875 91 48 C91 48.66 91 49.32 91 50 C91.57621094 50.24363281 92.15242188 50.48726562 92.74609375 50.73828125 C116.89066105 64.25421754 132.86069487 106.30178393 140.1875 131.1875 C148.40256825 160.76807309 149.33230243 194.10330941 142 224 C141.79101074 224.85609863 141.58202148 225.71219727 141.36669922 226.59423828 C129.53581642 273.16449228 99.17184709 314.40291646 58.09350586 339.37719727 C15.00058156 364.62060943 -36.93107308 372.17851473 -85.30566406 359.69238281 C-110.7918724 352.80690344 -133.4628726 341.59624784 -154 325 C-154.61359375 324.50741699 -155.2271875 324.01483398 -155.859375 323.50732422 C-190.93668785 295.11006587 -216.14330586 251.22295269 -221.53125 206.1640625 C-223.40974675 185.5931 -223.88661501 163.15137949 -219 143 C-218.73461426 141.84177734 -218.73461426 141.84177734 -218.46386719 140.66015625 C-214.46695469 123.40233027 -208.30094879 107.61894327 -200 92 C-199.39542969 90.83855469 -198.79085937 89.67710938 -198.16796875 88.48046875 C-188.50780493 70.68543013 -174.80874744 53.71332836 -159 41 C-158.51337891 40.60103516 -158.02675781 40.20207031 -157.52539062 39.79101562 C-133.5860673 20.1990963 -106.27830096 6.69248374 -76 0 C-74.97011963 -0.24556641 -74.97011963 -0.24556641 -73.91943359 -0.49609375 C-50.92956137 -5.84180509 -22.93975346 -5.23395228 0 0 Z " fill="#FDFDFD" transform="translate(222,3)"/>
<path d="M0 0 C0.66 0 1.32 0 2 0 C4.37010501 5.81503787 6.73574175 11.63187914 9.09838867 17.44995117 C9.9014149 19.42594796 10.70543539 21.401541 11.51049805 23.37670898 C12.67242552 26.22792792 13.83068195 29.08061527 14.98828125 31.93359375 C15.52283684 33.24196449 15.52283684 33.24196449 16.06819153 34.57676697 C18.25928971 39.98929557 20.22512821 45.43694784 22 51 C20.84213989 51.029729 20.84213989 51.029729 19.66088867 51.06005859 C16.16941042 51.15521143 12.67853848 51.26493047 9.1875 51.375 C7.97255859 51.4059375 6.75761719 51.436875 5.50585938 51.46875 C3.76079102 51.52675781 3.76079102 51.52675781 1.98046875 51.5859375 C0.90692139 51.6173584 -0.16662598 51.6487793 -1.27270508 51.68115234 C-4.2160765 51.81592307 -4.2160765 51.81592307 -7 54 C-7.549852 58.54802895 -7.549852 58.54802895 -5.93237305 62.69067383 C-3.03251604 64.6555422 -0.09605915 64.48008054 3.29296875 64.51171875 C3.99899734 64.52966995 4.70502594 64.54762115 5.43244934 64.56611633 C7.68407241 64.62023178 9.93548343 64.65411722 12.1875 64.6875 C13.71552431 64.72067219 15.24352063 64.75516177 16.77148438 64.79101562 C20.51416989 64.87595825 24.25679241 64.94276248 28 65 C29.06578496 67.49863786 30.12787828 69.9987459 31.1875 72.5 C31.70521973 73.71925171 31.70521973 73.71925171 32.23339844 74.96313477 C34.65251966 80.69790561 36.98954299 86.46114014 39.28515625 92.24609375 C40.15187625 94.41911995 41.01922399 96.59189487 41.8866272 98.76464844 C42.46065189 100.20929721 43.03096816 101.6554252 43.59750366 103.10302734 C44.40475577 105.16491717 45.22462611 107.22139708 46.046875 109.27734375 C46.51963867 110.47609131 46.99240234 111.67483887 47.47949219 112.90991211 C49.00345015 116.00701165 50.28223719 117.88810166 53 120 C56.59471004 120.24838381 56.59471004 120.24838381 60 119 C63.00473151 115.05891681 64.11030593 110.63134248 65.3046875 105.90234375 C65.50891327 105.11988281 65.71313904 104.33742188 65.92355347 103.53125 C66.58164102 101.00190098 67.22841674 98.46981176 67.875 95.9375 C68.32650315 94.19392457 68.77865329 92.45051655 69.23144531 90.70727539 C71.65069017 81.37000922 74.01446886 72.01952575 76.31030273 62.65112305 C77.9313207 56.1047869 79.80305709 49.63899374 81.69140625 43.16552734 C84.00475229 35.15974025 86.02827606 27.09016395 87.99584961 18.99316406 C89.15379067 14.25268046 90.34994935 9.59990535 92 5 C94 6 94 6 95.078125 8.859375 C95.4771864 10.15367893 95.86707693 11.45083004 96.25 12.75 C96.46253418 13.44939697 96.67506836 14.14879395 96.89404297 14.86938477 C98.96437906 21.73886454 100.92331493 28.64255885 102.85644531 35.55175781 C104.41512533 41.09349427 106.13837298 46.55308537 108 52 C108.46565033 53.3825411 108.93050277 54.76535121 109.39453125 56.1484375 C109.62470947 56.83365479 109.8548877 57.51887207 110.09204102 58.22485352 C112.46955863 65.32034577 114.80145936 72.42899357 117.0625 79.5625 C117.31088623 80.34431641 117.55927246 81.12613281 117.81518555 81.93164062 C119.05577392 85.87218932 120.24330905 89.81976807 121.34765625 93.80078125 C121.56349365 94.570271 121.77933105 95.33976074 122.00170898 96.13256836 C122.4039292 97.57964736 122.79612905 99.02956674 123.17602539 100.48266602 C124.36837587 104.76719635 125.7266065 107.93491336 129 111 C131.37366049 111.38989216 131.37366049 111.38989216 133.75 110.8125 C134.54921875 110.67457031 135.3484375 110.53664063 136.171875 110.39453125 C136.77515625 110.26433594 137.3784375 110.13414062 138 110 C138.15855469 109.3915625 138.31710937 108.783125 138.48046875 108.15625 C141.25154791 97.74556585 144.53194652 87.49864809 147.8671875 77.2578125 C153.33528472 60.43042488 158.5089095 43.5268936 163.5703125 26.57299805 C163.84134796 25.66871567 164.11238342 24.76443329 164.39163208 23.83274841 C164.89943747 22.13827757 165.40504075 20.44314446 165.90792847 18.74720764 C167.40922476 13.74385618 169.11657243 8.87287385 171 4 C174.25548341 7.59617354 175.24762307 11.68492886 176.5 16.25 C179.07424917 25.21948835 181.97451019 34.05850265 185.00219727 42.88293457 C185.49990896 44.33357809 185.9958466 45.78483153 186.48999023 47.23669434 C187.19161918 49.29621216 187.89941122 51.35349878 188.609375 53.41015625 C189.2276416 55.20658569 189.2276416 55.20658569 189.85839844 57.03930664 C190.92283456 60.12064994 190.92283456 60.12064994 193 63 C195.45981426 63.47735558 195.45981426 63.47735558 198.36767578 63.43237305 C199.48868683 63.45216721 200.60969788 63.47196136 201.76467896 63.49235535 C203.58659256 63.50194023 203.58659256 63.50194023 205.4453125 63.51171875 C207.30553543 63.53864555 207.30553543 63.53864555 209.20333862 63.56611633 C212.50116068 63.61119974 215.79878507 63.64344894 219.09680176 63.66955566 C222.46180805 63.69932731 225.82657733 63.74586911 229.19140625 63.79101562 C235.79416179 63.87618078 242.39693264 63.94443629 249 64 C248.85923685 65.9587043 248.7122324 67.91696093 248.5625 69.875 C248.48128906 70.96554688 248.40007812 72.05609375 248.31640625 73.1796875 C248 76 248 76 247 78 C242.38 78 237.76 78 233 78 C232.89816406 79.11375 232.79632813 80.2275 232.69140625 81.375 C232.04894933 86.46102414 230.57418218 91.15529544 228.9375 96 C228.62804443 96.91918213 228.31858887 97.83836426 227.99975586 98.78540039 C225.0509674 107.27929744 221.30725628 115.12573159 217 123 C216.36670907 124.20157088 215.73389027 125.40339073 215.1015625 126.60546875 C194.64448045 164.70303999 156.53480715 192.01305898 115.8515625 204.90625 C111.55885936 206.15894086 107.2309826 207.24122672 102.875 208.25 C101.83762695 208.49508301 101.83762695 208.49508301 100.77929688 208.74511719 C75.78000079 214.19845201 46.50181743 212.71780599 22 206 C21.18724609 205.78069824 20.37449219 205.56139648 19.53710938 205.33544922 C-6.02987501 198.19487931 -28.25531146 184.45584895 -48 167 C-49.05122383 166.13149159 -50.10461428 165.26559896 -51.16015625 164.40234375 C-54.10547485 161.91077437 -56.48395765 159.33188084 -58.96484375 156.3984375 C-60.44889498 154.64947886 -61.96682419 152.92910269 -63.50390625 151.2265625 C-83.29734307 129.07650872 -101 95.25290097 -101 65 C-90.44 65 -79.88 65 -69 65 C-68.10796875 67.5059375 -67.2159375 70.011875 -66.296875 72.59375 C-65.42096537 75.04340294 -64.54332852 77.49243058 -63.66552734 79.94140625 C-63.06053166 81.63216751 -62.4573086 83.32356422 -61.85595703 85.015625 C-60.98685533 87.46006362 -60.11121658 89.90207865 -59.234375 92.34375 C-58.97066101 93.08991577 -58.70694702 93.83608154 -58.4352417 94.6048584 C-55.3680944 103.99006668 -55.3680944 103.99006668 -49 111 C-46.93089407 111.02749478 -46.93089407 111.02749478 -44.8125 110.625 C-42.9253125 110.315625 -42.9253125 110.315625 -41 110 C-40.81878601 109.44570816 -40.63757202 108.89141632 -40.4508667 108.32032776 C-38.72785747 103.09442651 -36.89752282 97.92454647 -34.953125 92.77734375 C-34.66512527 92.01074432 -34.37712555 91.2441449 -34.08039856 90.45431519 C-33.13847898 87.94812538 -32.19424923 85.44281289 -31.25 82.9375 C-30.58503528 81.16957883 -29.92024344 79.40159263 -29.25561523 77.63354492 C-27.87074246 73.94979698 -26.48512125 70.26633171 -25.09912109 66.58300781 C-23.04700601 61.12742828 -21.00109249 55.66953894 -18.95703125 50.2109375 C-12.68258919 33.45684736 -6.40725129 16.70388834 0 0 Z " fill="#FDFDFD" transform="translate(118,141)"/>
<path d="M0 0 C0.7626416 0.16628906 1.5252832 0.33257812 2.31103516 0.50390625 C32.65790405 7.27132694 62.36088541 21.22512523 84.87109375 42.9765625 C86.94338903 45.03714319 86.94338903 45.03714319 89.28515625 46.6484375 C89.85105469 47.09445313 90.41695313 47.54046875 91 48 C91 48.66 91 49.32 91 50 C91.57621094 50.24363281 92.15242188 50.48726562 92.74609375 50.73828125 C116.89066105 64.25421754 132.86069487 106.30178393 140.1875 131.1875 C145.85285799 151.58715232 146.3920849 171.13814389 146.203125 192.1953125 C146.19872406 192.95273239 146.19432312 193.71015228 146.18978882 194.49052429 C146.11822745 199.76354509 146.11822745 199.76354509 145 202 C137.09823214 202.151988 129.19684031 202.25714825 121.29394531 202.32958984 C118.60472057 202.35640085 115.91634243 202.3981671 113.22753906 202.45263672 C109.36498703 202.52532681 105.50373557 202.55943132 101.640625 202.5859375 C99.83419525 202.63238907 99.83419525 202.63238907 97.99127197 202.67977905 C89.70622761 202.68312886 89.70622761 202.68312886 86.38745117 199.47290039 C84.84809097 195.61975965 83.38605532 191.8117869 82.16015625 187.84765625 C81.78690468 186.68187294 81.78690468 186.68187294 81.40611267 185.49253845 C80.6160441 183.01857464 79.83891296 180.54077921 79.0625 178.0625 C78.54581026 176.43396267 78.02823897 174.80570474 77.50976562 173.17773438 C76.74441748 170.77402741 75.97976497 168.37012734 75.21890259 165.96499634 C72.89194209 158.61636425 70.46334376 151.30398156 68 144 C66.33347265 147.11632314 65.19335544 150.23791969 64.1171875 153.6015625 C63.75866699 154.71829346 63.40014648 155.83502441 63.03076172 156.9855957 C62.64936035 158.18659912 62.26795898 159.38760254 61.875 160.625 C61.47684082 161.87176514 61.07868164 163.11853027 60.66845703 164.40307617 C56.04863836 178.89576653 51.57677008 193.4347545 47.19140625 208 C44.2955662 217.61037907 41.35226942 227.20398458 38.25 236.75 C37.96825928 237.63792236 37.68651855 238.52584473 37.39624023 239.44067383 C37.12626221 240.25947021 36.85628418 241.0782666 36.578125 241.921875 C36.34512695 242.63956055 36.11212891 243.35724609 35.87207031 244.09667969 C34.87075378 246.28208386 33.86160155 247.48568692 32 249 C28.625 250.0625 28.625 250.0625 25 250 C20.52391938 245.64972193 18.78209679 241.43548061 17.09765625 235.515625 C16.85260849 234.70115906 16.60756073 233.88669312 16.35508728 233.04754639 C15.57708598 230.4522384 14.81906859 227.85162753 14.0625 225.25 C13.05833139 221.85789708 12.04645924 218.46810646 11.03515625 215.078125 C10.78669449 214.23924744 10.53823273 213.40036987 10.28224182 212.53607178 C8.3418642 206.02281847 6.22409508 199.58019983 4.04702759 193.14282227 C2.1646078 187.55698453 0.48362943 181.93853505 -1.0625 176.25 C-3.07764612 169.00414845 -5.3502184 161.9637597 -7.96484375 154.91015625 C-9.24578106 151.30903061 -10.17939034 147.73004389 -11 144 C-13.56654207 151.21641921 -15.44239863 158.54237197 -17.24411011 165.97891235 C-19.75616919 176.32522556 -22.36959842 186.61460116 -25.4375 196.8125 C-28.92920192 208.42200192 -31.92598422 220.14541527 -34.89233398 231.89770508 C-40.89139812 255.63296695 -40.89139812 255.63296695 -46 259 C-49.5625 259.1875 -49.5625 259.1875 -53 258 C-56.01727483 254.06199274 -57.96818785 250.05198804 -59.76953125 245.44921875 C-60.01162827 244.83703995 -60.25372528 244.22486115 -60.50315857 243.59413147 C-61.27938039 241.62771842 -62.04601462 239.65772591 -62.8125 237.6875 C-63.61026398 235.65830632 -64.41030767 233.63002124 -65.21047974 231.60177612 C-65.73740884 230.26561491 -66.26351812 228.92913009 -66.78878784 227.59231567 C-69.14902404 221.59224245 -71.60276561 215.63359188 -74.12036133 209.69799805 C-76 205.2112916 -76 205.2112916 -76 203 C-76.94842773 203.02094727 -77.89685547 203.04189453 -78.87402344 203.06347656 C-82.40016425 203.1317356 -85.92560099 203.18183929 -89.45214844 203.21972656 C-90.97700085 203.23981599 -92.50177648 203.26709316 -94.02636719 203.30175781 C-96.22089598 203.35039796 -98.41440469 203.37299396 -100.609375 203.390625 C-101.92905273 203.41157227 -103.24873047 203.43251953 -104.60839844 203.45410156 C-108 203 -108 203 -110.43066406 201.19824219 C-112.71140545 198.00350114 -112.55580354 195.82114933 -112 192 C-109.74488412 189.68320517 -108.38560845 189.04622927 -105.15917969 188.65942383 C-104.09086914 188.67513428 -103.02255859 188.69084473 -101.921875 188.70703125 C-100.76171875 188.71669922 -99.6015625 188.72636719 -98.40625 188.73632812 C-97.1996875 188.76146484 -95.993125 188.78660156 -94.75 188.8125 C-93.52796875 188.82603516 -92.3059375 188.83957031 -91.046875 188.85351562 C-88.03080502 188.8888602 -85.01562513 188.9382044 -82 189 C-82.28609131 188.32759277 -82.57218262 187.65518555 -82.86694336 186.96240234 C-88.01743417 174.84759247 -93.15281484 162.72597022 -98.1875 150.5625 C-98.57349365 149.64065918 -98.9594873 148.71881836 -99.35717773 147.76904297 C-99.70723877 146.91842285 -100.0572998 146.06780273 -100.41796875 145.19140625 C-100.87852661 144.08067749 -100.87852661 144.08067749 -101.34838867 142.94750977 C-102 141 -102 141 -102 138 C-102.66 138 -103.32 138 -104 138 C-104.12591522 138.71467941 -104.25183044 139.42935883 -104.38156128 140.16569519 C-105.00524419 143.02403411 -105.86896202 145.61051166 -106.89501953 148.34887695 C-107.28749374 149.40196045 -107.67996796 150.45504395 -108.08433533 151.54003906 C-108.51283279 152.67795898 -108.94133026 153.81587891 -109.3828125 154.98828125 C-109.82955826 156.18380615 -110.27630402 157.37933105 -110.73658752 158.61108398 C-111.94502707 161.84467801 -113.15813162 165.07650264 -114.37228012 168.3079567 C-115.62795817 171.65191118 -116.87982716 174.99729101 -118.13208008 178.3425293 C-119.89219621 183.04335293 -121.65383173 187.7436023 -123.41724873 192.44318867 C-126.18610218 199.82270172 -128.94252433 207.20677404 -131.69140625 214.59375 C-132.70737769 217.31966574 -133.72375978 220.04542779 -134.74041748 222.77108765 C-135.36726993 224.45319086 -135.99313919 226.13566082 -136.61798096 227.81851196 C-137.47527974 230.1262775 -138.33671307 232.43245766 -139.19921875 234.73828125 C-139.44201065 235.39497803 -139.68480255 236.0516748 -139.93495178 236.72827148 C-143.81515505 247.06029539 -143.81515505 247.06029539 -146.8125 249.4375 C-149.94685427 250.24347681 -151.91164227 249.96511179 -155 249 C-158.93880666 244.97437963 -160.59023716 240.49690107 -162.453125 235.3046875 C-162.75820984 234.47542755 -163.06329468 233.6461676 -163.37762451 232.79177856 C-164.01733626 231.04691785 -164.65244864 229.30036474 -165.28320312 227.55224609 C-166.25068215 224.87311099 -167.23349789 222.19998729 -168.21875 219.52734375 C-168.83944923 217.82845631 -169.45927165 216.12924821 -170.078125 214.4296875 C-170.37180969 213.62965302 -170.66549438 212.82961853 -170.96807861 212.00534058 C-172.08840903 208.88618033 -173 206.34088407 -173 203 C-183.56 203 -194.12 203 -205 203 C-199.06690765 236.62085667 -186.9031561 268.02582204 -162.84570312 292.82861328 C-160.53515118 295.22102916 -159.0673221 296.79803371 -158 300 C-156.67026363 300.6738126 -155.33609569 301.33888691 -154 302 C-152.26031173 303.59138697 -150.55649724 305.2222463 -148.875 306.875 C-123.5961522 330.72454275 -84.3821382 348.10272705 -49.43359375 348.1328125 C-48.71824966 348.13376923 -48.00290558 348.13472595 -47.2658844 348.13571167 C-45.75562451 348.13638934 -44.24536164 348.134564 -42.73510742 348.13037109 C-40.46851732 348.12507251 -38.20213043 348.13030133 -35.93554688 348.13671875 C9.26102526 348.16488883 48.49761282 330.74900771 82 301 C82.65355469 300.41992188 83.30710937 299.83984375 83.98046875 299.2421875 C90.04498343 293.50898834 94.97466863 286.63328092 100 280 C100.63035156 279.17628906 101.26070313 278.35257812 101.91015625 277.50390625 C115.40290835 259.09889925 123.65636417 238.0424978 129 216 C133.62 216 138.24 216 143 216 C141.7935816 224.219487 140.05924006 231.83215041 137.375 239.6875 C137.02018555 240.73059326 136.66537109 241.77368652 136.29980469 242.84838867 C127.61539174 267.81319644 113.57815117 289.4640467 95.8125 308.9375 C95.34972656 309.44522949 94.88695312 309.95295898 94.41015625 310.47607422 C65.62329927 341.29458789 22.08503631 362.06206985 -20 365 C-69.36040529 366.65302044 -114.85496234 356.63347697 -154 325 C-154.61359375 324.50741699 -155.2271875 324.01483398 -155.859375 323.50732422 C-190.59844579 295.38389378 -214.10277957 253.54366548 -220.875 209.375 C-221.05518677 208.20481323 -221.05518677 208.20481323 -221.23901367 207.01098633 C-221.82788733 202.72036087 -222.05099496 198.53784639 -222.02783203 194.20556641 C-222.02381378 193.22713776 -222.01979553 192.24870911 -222.01565552 191.2406311 C-222.00790604 190.13151871 -222.00790604 190.13151871 -222 189 C-214.40118829 188.9239239 -206.80247484 188.871389 -199.20336914 188.83520508 C-196.61837087 188.82012038 -194.03339818 188.79964998 -191.44848633 188.77368164 C-187.7325204 188.73728558 -184.01689293 188.72027015 -180.30078125 188.70703125 C-179.14540359 188.69154739 -177.99002594 188.67606354 -176.79963684 188.66011047 C-175.71889389 188.65988388 -174.63815094 188.65965729 -173.5246582 188.65942383 C-172.57645706 188.65276199 -171.62825592 188.64610016 -170.65132141 188.63923645 C-167.44211271 189.07591135 -165.59172925 190.0801596 -163 192 C-161.42260742 195.046875 -161.42260742 195.046875 -160.10546875 198.75 C-159.86838699 199.40452148 -159.63130524 200.05904297 -159.38703918 200.73339844 C-158.89100125 202.11236274 -158.40316307 203.49430107 -157.9230957 204.87890625 C-157.18794207 206.99872529 -156.42943719 209.10896611 -155.66601562 211.21875 C-152 221.4802601 -152 221.4802601 -152 225 C-151.34 225 -150.68 225 -150 225 C-149.87219147 224.11730942 -149.74438293 223.23461884 -149.61270142 222.32518005 C-149.05314477 219.28842097 -148.2827073 216.67830484 -147.19677734 213.79711914 C-146.82431381 212.80096085 -146.45185028 211.80480255 -146.06809998 210.77845764 C-145.66148636 209.70816818 -145.25487274 208.63787872 -144.8359375 207.53515625 C-144.41147842 206.4051268 -143.98701935 205.27509735 -143.54969788 204.11082458 C-142.40123171 201.05733038 -141.24782145 198.00576671 -140.09168625 194.95516968 C-139.13446085 192.42726925 -138.18092685 189.8979833 -137.22736263 187.36870003 C-134.16304564 179.24143682 -131.0829159 171.12022419 -128 163 C-127.20066537 160.89177123 -126.4013479 158.78353596 -125.60205078 156.67529297 C-123.86791787 152.10465266 -122.12801752 147.53625837 -120.38189697 142.97018433 C-119.7583426 141.33920257 -119.1358839 139.70780145 -118.5145874 138.07595825 C-110.77675126 117.77675126 -110.77675126 117.77675126 -107 114 C-101.36005089 113.36323155 -101.36005089 113.36323155 -99 114 C-95.42980751 117.80445946 -93.55486345 121.95830797 -91.70703125 126.76171875 C-91.40380951 127.52819229 -91.10058777 128.29466583 -90.78817749 129.08436584 C-89.7884724 131.61574355 -88.80068282 134.15160479 -87.8125 136.6875 C-86.7475647 139.39137343 -85.67947942 142.09398995 -84.61134338 144.79660034 C-83.86980176 146.67358112 -83.12928803 148.55096828 -82.38975525 150.42874146 C-78.74606541 159.67433989 -75.01277853 168.88272292 -71.26934814 178.08828735 C-65.93843042 191.2041495 -60.63726185 204.33153609 -55.4375 217.5 C-54.97819092 218.65725586 -54.51888184 219.81451172 -54.0456543 221.00683594 C-53.43330933 222.5657959 -53.43330933 222.5657959 -52.80859375 224.15625 C-52.45595459 225.05150391 -52.10331543 225.94675781 -51.73999023 226.86914062 C-51 229 -51 229 -51 231 C-50.34 231 -49.68 231 -49 231 C-48.84144531 230.12601563 -48.68289062 229.25203125 -48.51953125 228.3515625 C-47.03712654 220.53822495 -45.23040874 212.91200363 -43.05029297 205.26489258 C-41.25694216 198.96958079 -39.57916393 192.64899174 -37.9375 186.3125 C-37.42450239 184.33593147 -36.91148213 182.35936882 -36.3984375 180.3828125 C-36.15706055 179.45243164 -35.91568359 178.52205078 -35.66699219 177.56347656 C-34.33784753 172.45512409 -32.97545884 167.35584851 -31.60546875 162.25830078 C-30.8589201 159.47379473 -30.11727467 156.68799212 -29.375 153.90234375 C-27.60259069 147.2629498 -25.80846791 140.62965761 -24 134 C-23.75040527 133.0807373 -23.50081055 132.16147461 -23.24365234 131.21435547 C-22.59072341 128.82695608 -21.92372505 126.44410095 -21.25 124.0625 C-21.06381104 123.37752441 -20.87762207 122.69254883 -20.68579102 121.98681641 C-19.71559715 118.62481008 -18.94474457 116.04374063 -16 114 C-12.625 113.5 -12.625 113.5 -9 114 C-4.47155641 117.62139088 -3.14108156 120.72919438 -1.875 126.3125 C-0.50311074 132.2104401 -0.50311074 132.2104401 1.4375 137.9375 C2.91140225 141.62619655 4.08421414 145.39290871 5.25 149.1875 C7.26084293 155.72001375 9.38580629 162.2084306 11.5625 168.6875 C13.78182646 175.30301552 15.94275459 181.92644697 17.96484375 188.60546875 C19.32282797 193.05863209 20.72275314 197.49810719 22.125 201.9375 C22.37902588 202.7433252 22.63305176 203.54915039 22.89477539 204.37939453 C23.95338353 207.72926072 25.02295198 211.06633121 26.171875 214.38671875 C27.0240128 217.07577625 27.16481088 219.19821504 27 222 C27.66 222 28.32 222 29 222 C29.09925781 220.86949219 29.19851562 219.73898438 29.30078125 218.57421875 C29.91312337 213.70433562 31.47047955 209.38908504 33.1875 204.8125 C35.75949941 197.73106505 38.0510973 190.63552574 40.0625 183.375 C42.08002702 176.1021459 44.30418467 168.9494851 46.75024414 161.81030273 C48.6954707 156.06963575 50.37434373 150.27587843 52 144.4375 C53.89218091 137.68778932 55.89675277 131.00108685 58.1875 124.375 C58.42533203 123.67044678 58.66316406 122.96589355 58.90820312 122.23999023 C61.12298646 115.99346369 61.12298646 115.99346369 64 114 C67.68606389 113.5308646 69.97752161 113.25122519 73.04296875 115.49609375 C75.71602935 118.91611739 76.68190181 122.36599006 77.875 126.5 C78.13055664 127.34385254 78.38611328 128.18770508 78.64941406 129.05712891 C79.44697311 131.70081695 80.22640014 134.3492102 81 137 C81.91281033 140.12615069 82.8283282 143.25144912 83.75 146.375 C83.98267578 147.16704834 84.21535156 147.95909668 84.45507812 148.77514648 C87.24539364 158.09872981 90.49774692 167.27002963 93.74902344 176.44091797 C94.16958008 177.6373291 94.59013672 178.83374023 95.0234375 180.06640625 C95.40419434 181.13834229 95.78495117 182.21027832 96.17724609 183.31469727 C97 186 97 186 97 189 C108.55 189 120.1 189 132 189 C131.82256453 168.59492067 130.87514081 150.62992398 125 131 C124.77183594 130.23349121 124.54367187 129.46698242 124.30859375 128.67724609 C116.6889939 104.11316186 101.8335411 82.23429483 84 64 C83.2884375 63.2265625 82.576875 62.453125 81.84375 61.65625 C57.50512722 35.81986582 21.05715597 19.78020649 -13.76269531 15.29370117 C-15.61975608 15.04991635 -17.47190706 14.76906808 -19.32226562 14.47875977 C-62.50411429 8.85743706 -106.95409089 22.2922577 -141.28857422 48.63183594 C-145.90802919 52.32476399 -150.19402908 56.37236627 -154.43408203 60.48974609 C-155.95699094 61.95851979 -157.50431741 63.3965849 -159.05859375 64.83203125 C-189.30867335 93.26524514 -204.29172867 135.34314244 -206 176 C-211.28 176 -216.56 176 -222 176 C-222.95467898 146.40495156 -213.76465538 117.89937331 -200 92 C-199.39542969 90.83855469 -198.79085937 89.67710938 -198.16796875 88.48046875 C-188.50780493 70.68543013 -174.80874744 53.71332836 -159 41 C-158.51337891 40.60103516 -158.02675781 40.20207031 -157.52539062 39.79101562 C-133.5860673 20.1990963 -106.27830096 6.69248374 -76 0 C-74.97011963 -0.24556641 -74.97011963 -0.24556641 -73.91943359 -0.49609375 C-50.92956137 -5.84180509 -22.93975346 -5.23395228 0 0 Z " fill="#6A5CAD" transform="translate(222,3)"/>
<path d="M0 0 C0.7626416 0.16628906 1.5252832 0.33257812 2.31103516 0.50390625 C32.65790405 7.27132694 62.36088541 21.22512523 84.87109375 42.9765625 C86.94338903 45.03714319 86.94338903 45.03714319 89.28515625 46.6484375 C89.85105469 47.09445313 90.41695313 47.54046875 91 48 C91 48.66 91 49.32 91 50 C91.57621094 50.24363281 92.15242188 50.48726562 92.74609375 50.73828125 C116.89545692 64.25690223 132.85289352 106.30028042 140.1875 131.1875 C145.61028553 150.5414146 146.40642823 168.94954059 146 189 C141.71 189 137.42 189 133 189 C132.96261719 187.39253906 132.92523438 185.78507813 132.88671875 184.12890625 C132.53072453 171.49502329 131.85549924 159.3258546 129 147 C128.74476563 145.86836426 128.74476563 145.86836426 128.484375 144.71386719 C121.3698965 113.77859015 106.1586333 86.65658011 84 64 C83.2884375 63.2265625 82.576875 62.453125 81.84375 61.65625 C57.50512722 35.81986582 21.05715597 19.78020649 -13.76269531 15.29370117 C-15.61975608 15.04991635 -17.47190706 14.76906808 -19.32226562 14.47875977 C-62.50411429 8.85743706 -106.95409089 22.2922577 -141.28857422 48.63183594 C-145.90802919 52.32476399 -150.19402908 56.37236627 -154.43408203 60.48974609 C-155.95699094 61.95851979 -157.50431741 63.3965849 -159.05859375 64.83203125 C-189.30867335 93.26524514 -204.29172867 135.34314244 -206 176 C-211.28 176 -216.56 176 -222 176 C-222.95467898 146.40495156 -213.76465538 117.89937331 -200 92 C-199.39542969 90.83855469 -198.79085937 89.67710938 -198.16796875 88.48046875 C-188.50780493 70.68543013 -174.80874744 53.71332836 -159 41 C-158.51337891 40.60103516 -158.02675781 40.20207031 -157.52539062 39.79101562 C-133.5860673 20.1990963 -106.27830096 6.69248374 -76 0 C-74.97011963 -0.24556641 -74.97011963 -0.24556641 -73.91943359 -0.49609375 C-50.92956137 -5.84180509 -22.93975346 -5.23395228 0 0 Z " fill="#213C59" transform="translate(222,3)"/>
<path d="M0 0 C4.95 0 9.9 0 15 0 C15.42410156 1.80082031 15.84820312 3.60164062 16.28515625 5.45703125 C23.92851804 37.35065539 34.93210523 66.89017635 58.15405273 90.828125 C60.46450778 93.22080946 61.93263079 94.79789237 63 98 C64.32973637 98.6738126 65.66390431 99.33888691 67 100 C68.73968827 101.59138697 70.44350276 103.2222463 72.125 104.875 C97.4038478 128.72454275 136.6178618 146.10272705 171.56640625 146.1328125 C172.28175034 146.13376923 172.99709442 146.13472595 173.7341156 146.13571167 C175.24437549 146.13638934 176.75463836 146.134564 178.26489258 146.13037109 C180.53148268 146.12507251 182.79786957 146.13030133 185.06445312 146.13671875 C230.26102526 146.16488883 269.49761282 128.74900771 303 99 C303.65355469 98.41992188 304.30710937 97.83984375 304.98046875 97.2421875 C311.04498343 91.50898834 315.97466863 84.63328092 321 78 C321.63035156 77.17628906 322.26070313 76.35257812 322.91015625 75.50390625 C336.40290835 57.09889925 344.65636417 36.0424978 350 14 C354.62 14 359.24 14 364 14 C362.7935816 22.219487 361.05924006 29.83215041 358.375 37.6875 C358.02018555 38.73059326 357.66537109 39.77368652 357.29980469 40.84838867 C348.61539174 65.81319644 334.57815117 87.4640467 316.8125 106.9375 C316.34972656 107.44522949 315.88695312 107.95295898 315.41015625 108.47607422 C286.62329927 139.29458789 243.08503631 160.06206985 201 163 C151.63959471 164.65302044 106.14503766 154.63347697 67 123 C66.38640625 122.50741699 65.7728125 122.01483398 65.140625 121.50732422 C30.87691379 93.76872682 6.9434997 52.13274807 0.2265625 8.47265625 C-0.03122531 5.65921345 0 2.8252283 0 0 Z " fill="#213C5A" transform="translate(1,205)"/>
<path d="M0 0 C1.1484375 1.609375 1.1484375 1.609375 2 4 C1.1015625 7.015625 1.1015625 7.015625 -0.375 10.25 C-0.85710937 11.32765625 -1.33921875 12.4053125 -1.8359375 13.515625 C-2.22007812 14.33546875 -2.60421875 15.1553125 -3 16 C-3.66 15.67 -4.32 15.34 -5 15 C-3.33333333 10 -1.66666667 5 0 0 Z " fill="#35526A" transform="translate(346,237)"/>
<path d="M0 0 C3.5 0.25 3.5 0.25 5.5 2.25 C4.46875 2.146875 3.4375 2.04375 2.375 1.9375 C-2.65723716 2.34332558 -3.96344709 3.79970448 -7.5 7.25 C-4.95945946 0.3542471 -4.95945946 0.3542471 0 0 Z " fill="#A869B7" transform="translate(289.5,116.75)"/>
<path d="M0 0 C0.33 0 0.66 0 1 0 C1.36630156 3.93774177 1.30233203 5.56539771 -1 8.875 C-1.66 9.57625 -2.32 10.2775 -3 11 C-2.53199289 6.94393835 -2.12046792 3.53411321 0 0 Z " fill="#315BA6" transform="translate(83,197)"/>
</svg>
